<?xml version="1.0" encoding="utf-8"?>
<!-- Generator: Adobe Illustrator 25.2.0, SVG Export Plug-In . SVG Version: 6.00 Build 0)  -->
<svg version="1.1" id="Layer_1" xmlns="http://www.w3.org/2000/svg" xmlns:xlink="http://www.w3.org/1999/xlink" x="0px" y="0px"
	 viewBox="0 0 22 19" style="enable-background:new 0 0 22 19;" xml:space="preserve">
<style type="text/css">
	.st0{fill:none;}
</style>
<path class="st0" d="M-1-2.5h24v24H-1V-2.5z"/>
<path d="M18.6,0H3.4c-1,0-1.9,0.9-1.9,1.9V19l3.8-3.8h13.3c1,0,1.9-0.9,1.9-1.9V1.9C20.5,0.9,19.6,0,18.6,0z M18.6,13.3H5.3
	l-1.9,1.9V1.9h15.2V13.3z M6.2,6.7h1.9v1.9H6.2V6.7z M10.1,6.7h1.9v1.9h-1.9V6.7z M13.9,6.7h1.9v1.9h-1.9V6.7z"/>
</svg>
