<?xml version="1.0" encoding="utf-8"?>
<!-- Generator: Adobe Illustrator 25.2.0, SVG Export Plug-In . SVG Version: 6.00 Build 0)  -->
<svg version="1.1" id="Layer_1" xmlns="http://www.w3.org/2000/svg" xmlns:xlink="http://www.w3.org/1999/xlink" x="0px" y="0px"
	 viewBox="0 0 19 22" style="enable-background:new 0 0 19 22;" xml:space="preserve">
<style type="text/css">
	.st0{fill:none;}
</style>
<path class="st0" d="M-2.5-1h24v24h-24V-1z"/>
<path d="M17.1,1.5H1.9C0.9,1.5,0,2.4,0,3.4v17.1l3.8-3.8h13.3c1,0,1.9-0.9,1.9-1.9V3.4C19,2.4,18.1,1.5,17.1,1.5z M17.1,14.8H3.8
	l-1.9,1.9V3.4h15.2V14.8z M4.7,8.2h1.9v1.9H4.7V8.2z M8.6,8.2h1.9v1.9H8.6V8.2z M12.4,8.2h1.9v1.9h-1.9V8.2z"/>
</svg>
