<?xml version="1.0" encoding="utf-8"?>
<!-- Generator: Adobe Illustrator 25.2.0, SVG Export Plug-In . SVG Version: 6.00 Build 0)  -->
<svg version="1.1" id="Layer_1" xmlns="http://www.w3.org/2000/svg" xmlns:xlink="http://www.w3.org/1999/xlink" x="0px" y="0px"
	 viewBox="0 0 19 22" style="enable-background:new 0 0 19 22;" xml:space="preserve">
<style type="text/css">
	.st0{fill:none;}
</style>
<path class="st0" d="M-2.5-1h24v24h-24V-1z"/>
<path d="M9.5,5.8c3.3,0,6.2,1.8,7.6,4.8c-1.4,2.9-4.3,4.8-7.6,4.8s-6.2-1.8-7.6-4.8C3.3,7.6,6.2,5.8,9.5,5.8 M9.5,4
	c-4.3,0-8,2.7-9.5,6.5C1.5,14.3,5.2,17,9.5,17s8-2.7,9.5-6.5C17.5,6.7,13.8,4,9.5,4z M9.5,8.3c1.2,0,2.2,1,2.2,2.2s-1,2.2-2.2,2.2
	s-2.2-1-2.2-2.2S8.3,8.3,9.5,8.3 M9.5,6.6c-2.1,0-3.9,1.7-3.9,3.9s1.7,3.9,3.9,3.9s3.9-1.7,3.9-3.9S11.6,6.6,9.5,6.6z"/>
</svg>
