<?xml version="1.0" encoding="utf-8"?>
<!-- Generator: Adobe Illustrator 25.2.0, SVG Export Plug-In . SVG Version: 6.00 Build 0)  -->
<svg version="1.1" id="Layer_1" xmlns="http://www.w3.org/2000/svg" xmlns:xlink="http://www.w3.org/1999/xlink" x="0px" y="0px"
	 viewBox="0 0 19 22" style="enable-background:new 0 0 19 22;" xml:space="preserve">
<style type="text/css">
	.st0{fill:none;}
</style>
<path class="st0" d="M-2.5-1h24v24h-24V-1z M-2.5-1h24v24h-24V-1z M-2.5-1h24v24h-24V-1z M-2.5-1h24v24h-24V-1z"/>
<path d="M9.5,5.8c3.3,0,6.2,1.8,7.6,4.8c-0.5,1.1-1.2,2-2.1,2.7l1.2,1.2c1.2-1.1,2.2-2.4,2.7-3.9c-1.5-3.8-5.2-6.5-9.5-6.5
	c-1.1,0-2.2,0.2-3.1,0.5L7.8,6C8.3,5.9,8.9,5.8,9.5,5.8z M8.6,6.8l1.8,1.8c0.5,0.2,0.9,0.6,1.1,1.1l1.8,1.8c0.1-0.3,0.1-0.6,0.1-0.9
	c0-2.1-1.7-3.9-3.9-3.9C9.2,6.7,8.9,6.7,8.6,6.8z M0.9,4l2.3,2.3C1.8,7.4,0.7,8.9,0,10.6C1.5,14.4,5.2,17,9.5,17
	c1.3,0,2.6-0.3,3.7-0.7l3,3l1.2-1.2L2.1,2.8L0.9,4z M7.3,10.5l2.3,2.3c0,0-0.1,0-0.1,0c-1.2,0-2.2-1-2.2-2.2
	C7.3,10.5,7.3,10.5,7.3,10.5z M4.4,7.5L5.9,9c-0.2,0.5-0.3,1-0.3,1.5c0,2.1,1.7,3.9,3.9,3.9c0.5,0,1.1-0.1,1.5-0.3l0.8,0.8
	c-0.8,0.2-1.6,0.3-2.4,0.3c-3.3,0-6.2-1.8-7.6-4.8C2.5,9.3,3.4,8.3,4.4,7.5z"/>
</svg>
